<svg xmlns="http://www.w3.org/2000/svg" viewBox="0 0 77.64 319.61"><defs><style>.a{fill:#e6e6e6;stroke:#000;stroke-miterlimit:10;}</style></defs><title>S</title><path class="a" d="M196.75,183.89v113c0,13.51-13.7,23.33-33.4,23.33s-33.4-9.82-33.4-23.33l0.86-89h11.13l0.86,89c0,8.59,9.42,15.35,20.56,15.35,12,0,20.55-6.75,20.55-15.35v-113c0-8.59-8.56-14.73-20.55-16-20.56-1.84-33.4-10.44-33.4-23.33V24.89c0-12.89,13.7-23.33,33.4-23.33s33.4,10.44,33.4,23.33L195.9,120H184.76l-0.86-95.15c0-8-8.56-15.35-20.55-15.35-11.13,0-20.56,7.37-20.56,15.35V144.6c0,8,9.42,13.51,20.56,14.73C182.19,161.17,196.75,170.38,196.75,183.89Z" transform="translate(-129.45 -1.06)"/><path class="a" d="M206.58,183.89v113c0,13.51-13.7,23.33-33.4,23.33s-33.4-9.82-33.4-23.33l0.86-89h11.13l0.86,89c0,8.59,9.42,15.35,20.56,15.35,12,0,20.55-6.75,20.55-15.35v-113c0-8.59-8.56-14.73-20.55-16-20.56-1.84-33.4-10.44-33.4-23.33V24.89c0-12.89,13.7-23.33,33.4-23.33s33.4,10.44,33.4,23.33L205.73,120H194.59l-0.86-95.15c0-8-8.56-15.35-20.55-15.35-11.13,0-20.56,7.37-20.56,15.35V144.6c0,8,9.42,13.51,20.56,14.73C192,161.17,206.58,170.38,206.58,183.89Z" transform="translate(-129.45 -1.06)"/></svg>